<svg version="1.1" id="Layer_1" xmlns="http://www.w3.org/2000/svg" xmlns:xlink="http://www.w3.org/1999/xlink" x="0px" y="0px"
	 width="100%" viewBox="0 0 1024 1024" enable-background="new 0 0 1024 1024" xml:space="preserve">
<path fill="#34abef" opacity="1.000000" stroke="none" 
	d="
M489.390411,336.972900 
	C441.603394,325.923431 409.205414,298.156311 393.403107,251.775894 
	C391.297394,245.595474 387.576721,244.385208 381.003723,248.110580 
	C364.631256,257.389923 348.284821,266.715179 331.923065,276.013397 
	C301.226929,293.457733 270.565918,310.964691 239.783066,328.254669 
	C235.676361,330.561279 234.793442,332.426361 237.324707,336.692963 
	C250.664505,359.178192 263.776825,381.799286 276.828888,404.453430 
	C278.789551,407.856506 280.562897,407.665466 283.570587,405.842041 
	C305.219727,392.717072 326.901001,379.642517 348.696503,366.762482 
	C359.112579,360.607117 369.216766,363.686676 373.636658,373.895599 
	C374.992981,377.028412 375.194611,380.323517 375.159576,383.681274 
	C374.777069,420.335114 373.966675,456.986115 374.418579,493.645599 
	C374.510986,501.138977 374.588318,508.632629 374.647125,516.126343 
	C374.682770,520.665466 372.986542,523.658630 368.055725,524.585022 
	C359.250732,526.239075 350.523102,528.300659 341.740234,530.078796 
	C336.828918,531.073120 335.775269,530.064636 335.796204,524.544067 
	C335.920135,491.888062 335.501587,459.227234 336.641754,426.579742 
	C336.715698,424.462341 336.651367,422.340088 336.651367,419.565613 
	C332.172394,420.837463 329.187225,423.266907 326.035706,425.234741 
	C309.932312,435.289764 293.901550,445.461151 277.852478,455.603180 
	C269.373230,460.961517 264.404205,459.784149 259.396606,451.153107 
	C235.744934,410.387238 212.093002,369.621490 188.460403,328.844543 
	C182.640060,318.801849 183.219009,316.349457 193.203293,310.659088 
	C250.940201,277.752686 308.713409,244.910004 366.455383,212.012482 
	C371.646301,209.055023 377.082764,207.456436 383.103210,207.671982 
	C394.585724,208.083084 406.072235,208.492325 417.559906,208.598236 
	C422.381866,208.642685 423.286560,211.960587 424.139893,215.346985 
	C426.246857,223.707840 427.297516,232.324326 430.309235,240.469833 
	C442.534485,273.533966 465.609741,294.024719 500.627411,299.684479 
	C547.552063,307.268646 591.971985,274.715485 599.671936,227.802032 
	C600.476685,222.898804 601.592041,218.036392 602.791687,213.211823 
	C603.557068,210.133255 605.633423,208.662201 609.015625,208.608490 
	C620.838196,208.420761 632.657227,208.013596 644.478027,207.706757 
	C649.928772,207.565247 654.995667,208.884155 659.743286,211.603775 
	C718.279419,245.135269 776.830383,278.640747 835.367798,312.170013 
	C841.692200,315.792542 843.119995,320.259705 839.386230,326.783905 
	C826.316345,349.621399 813.081360,372.364838 799.829041,395.097412 
	C789.010071,413.656097 778.072876,432.145905 767.196106,450.670959 
	C761.784607,459.887726 756.907593,460.872375 748.012085,455.166443 
	C730.070007,443.657654 711.988647,432.366089 693.950867,421.006836 
	C693.145691,420.499786 692.204529,420.208801 691.071777,419.703430 
	C689.810425,422.100372 690.302307,424.462708 690.301697,426.698364 
	C690.287354,479.024963 690.236084,531.351868 690.439209,583.677734 
	C690.463806,590.012146 688.506714,594.932495 684.171997,599.311340 
	C675.966187,607.600403 667.899719,616.027466 659.761536,624.383728 
	C658.126587,626.062500 656.419678,628.050842 653.774719,626.912598 
	C651.319336,625.855896 651.700562,623.347107 651.700317,621.216553 
	C651.689575,541.393433 651.680725,461.570282 651.711670,381.747162 
	C651.717163,367.641632 664.638672,359.347504 677.284241,366.648193 
	C699.361572,379.394226 721.036255,392.787659 742.849548,405.957642 
	C746.025940,407.875427 747.784729,407.649658 749.605835,404.459595 
	C763.148743,380.736237 776.767517,357.056122 790.351074,333.355896 
	C790.590271,332.938568 790.687866,332.440063 791.055786,331.404266 
	C786.411743,328.679657 781.741455,325.888275 777.023560,323.179810 
	C733.694397,298.304871 690.357422,273.443634 647.019653,248.583801 
	C646.009644,248.004456 645.004456,247.385422 643.928284,246.957962 
	C638.302429,244.723419 634.973755,246.366989 633.037048,252.044464 
	C616.711304,299.903412 583.085571,327.677734 533.912109,337.455170 
	C519.160706,340.388245 504.484863,339.608276 489.390411,336.972900 
z"/>
<path fill="#34abef" opacity="1.000000" stroke="none" 
	d="
M307.734314,587.645508 
	C327.325104,576.996338 347.788818,571.045288 369.772400,569.519714 
	C411.671143,566.612122 447.823486,580.697571 480.575134,605.548523 
	C501.189240,621.189941 519.119568,639.896667 538.793518,656.605896 
	C557.018372,672.084351 576.938049,684.331299 600.983276,688.860291 
	C623.993896,693.194458 645.197205,688.465027 665.371704,677.436279 
	C683.473755,667.540588 697.831482,653.154053 711.974792,638.509338 
	C717.414978,632.876343 722.904480,627.290405 728.417725,621.728821 
	C732.442810,617.668457 734.921021,617.498169 739.168396,621.167725 
	C745.345154,626.504150 751.400879,631.980469 757.533447,637.368347 
	C760.900513,640.326538 761.476318,643.483582 758.140564,646.774109 
	C738.823486,665.828796 720.812073,686.301880 698.675171,702.315186 
	C678.604553,716.833862 656.368225,725.873718 631.570312,728.408386 
	C594.061768,732.242188 561.025146,720.513000 530.763916,699.440491 
	C511.563904,686.070618 495.007355,669.546570 477.784943,653.834961 
	C458.474945,636.218933 438.354645,619.730164 412.525513,612.613586 
	C374.054962,602.013855 339.124847,609.570923 307.831665,634.221191 
	C294.964417,644.356934 283.884979,656.384888 272.296906,667.874268 
	C267.591309,672.539795 266.345581,672.559021 261.717865,667.778809 
	C255.692398,661.554749 249.750519,655.249756 243.773102,648.979187 
	C241.335297,646.421814 240.860657,643.857300 243.609955,641.155457 
	C263.446320,621.661499 282.707214,601.482483 307.734314,587.645508 
z"/>
<path fill="#34abef" opacity="1.000000" stroke="none" 
	d="
M617.000000,763.685059 
	C625.329285,763.687012 633.167908,763.444824 640.985718,763.744995 
	C654.936646,764.280701 668.006104,761.028259 680.630493,755.404907 
	C687.926758,752.154907 690.300049,753.762817 690.313965,761.850647 
	C690.331177,771.845459 690.343201,781.840332 690.309570,791.835083 
	C690.282776,799.792847 687.725159,802.387634 679.984497,802.387939 
	C568.875549,802.392822 457.766571,802.394958 346.657593,802.391663 
	C338.279694,802.391418 335.739929,799.914062 335.795349,791.304993 
	C336.026978,755.329468 336.372406,719.354675 336.595490,683.379089 
	C336.626160,678.433655 338.759216,675.535950 343.617920,674.633057 
	C350.626648,673.330566 357.601044,671.798706 364.648529,670.762146 
	C371.740692,669.719116 374.444000,672.322632 374.433594,679.372314 
	C374.395172,705.358765 374.506287,731.346558 374.237091,757.330505 
	C374.185120,762.347473 375.489349,763.813232 380.622467,763.802490 
	C459.248047,763.638489 537.874084,763.686646 617.000000,763.685059 
z"/>
</svg>