<svg version="1.1" id="Layer_1" xmlns="http://www.w3.org/2000/svg" xmlns:xlink="http://www.w3.org/1999/xlink" x="0px" y="0px"
	 width="100%" viewBox="0 0 1024 1024" enable-background="new 0 0 1024 1024" xml:space="preserve">
<path fill="#34abef" opacity="1.000000" stroke="none" 
	d="
M553.902466,709.156860 
	C569.593628,730.130127 570.411194,756.690186 555.114685,775.656128 
	C541.309570,792.772888 522.763611,798.679932 501.486938,793.684265 
	C480.182434,788.682007 466.950134,774.782715 462.757721,753.303101 
	C458.280579,730.364807 467.427826,710.212524 487.205933,697.665649 
	C490.368134,695.659546 491.757843,693.537903 491.717041,689.671509 
	C491.514740,670.511169 491.642029,651.347534 491.599487,632.185181 
	C491.594055,629.743042 491.966644,627.198975 490.444672,624.548401 
	C483.093109,626.225220 476.523041,629.759338 469.945007,633.200684 
	C451.976685,642.601074 436.979065,655.713989 423.785095,670.929688 
	C413.203308,683.132874 410.093475,683.372375 398.740021,672.257629 
	C335.876678,610.715759 274.262878,547.920288 211.792175,485.984711 
	C205.364288,479.611847 204.954788,475.335144 210.666077,469.287598 
	C228.851257,450.031708 246.797653,430.520630 267.063904,413.368103 
	C298.366333,386.875061 333.209473,366.330017 371.465881,351.580078 
	C401.196259,340.117401 431.848053,332.338501 463.504608,328.513184 
	C470.427155,327.676666 477.312134,326.732208 484.306061,326.582397 
	C491.001740,326.439026 491.404083,325.582184 491.694916,318.941437 
	C492.356812,303.826538 487.656525,291.151001 475.532379,281.618652 
	C474.499817,280.806854 473.411560,279.971375 472.939453,278.150848 
	C480.629120,268.654663 489.080627,259.514771 497.876129,250.682587 
	C502.224670,246.315857 506.637817,242.012863 510.952942,237.613571 
	C512.974792,235.552292 514.662598,235.426804 516.857056,237.541626 
	C529.343567,249.575150 541.197266,262.190491 552.437683,275.395630 
	C554.472839,277.786560 553.926208,279.337891 551.835938,281.218384 
	C546.493042,286.025024 541.605896,291.180176 538.495850,297.853882 
	C534.671997,306.059326 535.209412,314.715851 535.481628,323.333527 
	C535.584106,326.577148 538.692566,326.451599 540.846130,326.532745 
	C556.820374,327.134644 572.535950,329.644714 588.193481,332.641418 
	C642.750549,343.083038 692.730286,364.174011 738.090698,396.368774 
	C765.469299,415.800873 788.478394,439.823425 811.376038,464.048737 
	C823.136047,476.490753 823.258911,477.688812 811.276123,489.684784 
	C772.297913,528.705627 733.298096,567.704956 694.342102,606.747986 
	C671.750000,629.390503 649.222717,652.097656 626.673279,674.782715 
	C618.948059,682.554321 614.144043,682.379822 606.799561,673.954224 
	C591.013062,655.843994 573.590454,639.794434 551.333374,629.823181 
	C546.646301,627.723389 542.045471,625.360352 536.972290,624.669373 
	C534.941162,625.772888 535.375000,627.599365 535.372681,629.188782 
	C535.342285,649.684265 535.412231,670.180176 535.284973,690.674866 
	C535.265625,693.800842 536.386597,695.570984 539.095459,696.913025 
	C544.854431,699.765991 549.527649,704.022278 553.902466,709.156860 
M491.616486,523.500061 
	C491.621338,476.341980 491.626587,429.183868 491.630707,382.025787 
	C491.631744,370.168579 491.643524,370.347839 479.652100,371.248901 
	C455.180389,373.087738 431.345947,378.073792 407.945068,385.298737 
	C353.413544,402.135193 306.977692,431.899872 267.638336,473.058868 
	C265.024780,475.793274 265.741272,477.325928 268.063934,479.530670 
	C273.379333,484.576172 278.532288,489.795013 283.690857,495.003265 
	C324.257080,535.960571 364.828857,576.912476 405.321960,617.942017 
	C408.069794,620.726257 409.801331,621.592224 413.398987,618.650208 
	C435.136932,600.873779 458.869263,586.660950 486.575409,580.270386 
	C490.772614,579.302307 491.758484,577.414001 491.715546,573.490356 
	C491.536835,557.161926 491.624786,540.830444 491.616486,523.500061 
M581.330444,596.092163 
	C591.771179,602.039062 601.596008,608.897095 611.054016,616.286194 
	C617.372864,621.222839 617.407776,621.327332 622.916443,615.798462 
	C665.127563,573.432678 707.321167,531.049316 749.487427,488.638702 
	C753.567078,484.535400 757.423035,480.209747 761.555786,475.802826 
	C749.857849,462.944427 737.599182,451.475677 724.459229,440.976166 
	C689.365356,412.934204 649.787476,393.717957 606.621887,381.729248 
	C585.464844,375.853119 563.869324,372.320160 542.004944,370.413940 
	C538.339478,370.094360 535.240173,369.882629 535.252563,375.450104 
	C535.399841,441.760162 535.373108,508.070740 535.283569,574.381042 
	C535.278870,577.846191 536.351746,579.504761 539.779785,580.177124 
	C554.290161,583.023132 567.577820,589.152466 581.330444,596.092163 
z"/>
<path fill="#34abef" opacity="1.000000" stroke="none" 
	d="
M388.467407,238.459534 
	C379.690063,239.949142 371.295868,240.973099 363.027313,243.217865 
	C360.620514,239.965790 360.193695,236.280762 359.127075,232.867493 
	C356.451874,224.306381 353.973175,215.682877 351.214813,207.149338 
	C350.259277,204.193268 351.192047,202.722641 353.962158,202.014145 
	C374.311096,196.809708 394.739349,193.283920 415.980438,195.373291 
	C431.263458,196.876556 446.063782,200.033066 460.425110,204.057434 
	C461.771057,206.212646 460.600128,207.747757 460.076538,209.203323 
	C456.474548,219.216782 452.663696,229.155380 449.090515,239.178818 
	C447.869232,242.604843 446.017975,243.978226 442.340149,242.989975 
	C424.816040,238.281158 406.939575,237.501053 388.467407,238.459534 
z"/>
<path fill="#34abef" opacity="1.000000" stroke="none" 
	d="
M567.408569,211.527740 
	C566.563171,209.006882 565.043457,207.024490 565.723389,204.565475 
	C591.945251,192.457581 653.588684,191.920181 676.175659,203.903229 
	C673.074463,214.220932 669.966370,224.686050 666.778442,235.126816 
	C664.393311,242.938538 664.307373,243.110840 656.254517,241.376953 
	C632.061279,236.167816 608.012878,237.394608 584.069824,242.836182 
	C580.628845,243.618210 578.844971,242.943298 577.656067,239.541840 
	C574.417603,230.276932 570.934509,221.097549 567.408569,211.527740 
z"/>
<path fill="#34abef" opacity="1.000000" stroke="none" 
	d="
M320.399414,254.779114 
	C323.120361,258.144531 322.121399,260.272461 319.175934,262.489746 
	C300.192169,276.780396 284.321533,293.806061 273.724945,315.311523 
	C272.209106,318.387909 270.441711,318.342834 267.747589,317.027039 
	C257.289276,311.919128 246.804810,306.859894 236.239243,301.979218 
	C233.076202,300.518066 233.172028,298.926331 234.552826,296.156342 
	C247.186493,270.811981 264.747284,249.675583 287.881378,233.258621 
	C291.135529,230.949295 294.537659,228.849548 297.832733,226.596405 
	C300.213409,224.968506 301.815430,225.143295 303.468811,227.860596 
	C308.913086,236.808090 314.611084,245.601196 320.399414,254.779114 
z"/>
<path fill="#34abef" opacity="1.000000" stroke="none" 
	d="
M733.307983,229.636444 
	C763.127441,249.376160 784.383545,277.752258 793.016846,300.512421 
	C787.269531,303.277405 781.478516,306.078430 775.674194,308.851562 
	C769.824036,311.646576 763.922729,314.337860 758.119751,317.227081 
	C755.437378,318.562622 753.961487,317.961060 752.671326,315.268585 
	C742.366028,293.760925 726.564941,276.882538 707.740479,262.663849 
	C704.403870,260.143646 703.843567,258.160187 706.269531,254.567642 
	C711.664246,246.578690 716.581726,238.268814 721.767944,230.137115 
	C725.379700,224.474213 725.436768,224.506210 730.945312,228.032776 
	C731.645447,228.481033 732.311829,228.982132 733.307983,229.636444 
z"/>
</svg>