<svg version="1.1" id="Layer_1" xmlns="http://www.w3.org/2000/svg" xmlns:xlink="http://www.w3.org/1999/xlink" x="0px" y="0px"
	 width="100%" viewBox="0 0 1024 1024" enable-background="new 0 0 1024 1024" xml:space="preserve">
<path fill="#34abef" opacity="1.000000" stroke="none" 
	d="
M813.999878,811.396973 
	C779.836548,811.408875 746.172424,811.275879 712.510010,811.456116 
	C513.035767,812.524048 313.560181,811.646973 114.085457,811.909729 
	C109.260529,811.916077 104.436043,811.542542 99.609787,811.398010 
	C89.958687,811.108887 82.949905,804.460999 82.663712,795.281006 
	C82.337631,784.821594 88.595566,777.609802 98.791275,776.784485 
	C100.779320,776.623596 102.788696,776.709839 104.788239,776.709717 
	C339.765167,776.690063 574.742065,776.673035 809.718994,776.655762 
	C818.154541,776.655151 818.046387,776.629578 819.919739,768.524963 
	C821.299133,762.556946 823.008362,756.665100 824.588989,750.669861 
	C822.243896,748.406555 819.433716,749.372559 816.925110,749.371887 
	C679.605286,749.336853 542.285461,749.356567 404.965637,749.375732 
	C351.637543,749.383118 298.305969,749.033447 244.982483,749.535828 
	C203.992264,749.922058 163.003922,750.328369 122.012039,750.376221 
	C120.345642,750.378113 118.673302,750.442444 117.013832,750.329468 
	C109.938004,749.847412 106.274834,744.646545 108.375626,737.864929 
	C112.214577,725.472473 119.323845,714.686768 125.878601,703.710938 
	C180.829575,611.696533 260.895233,551.432495 361.801178,517.611816 
	C392.930359,507.178253 424.874298,500.366058 457.335815,495.804779 
	C462.589539,495.066528 467.861908,494.455536 473.132812,493.847900 
	C475.505951,493.574341 476.375946,492.416290 476.701477,489.973663 
	C478.731689,474.741180 490.407959,464.667206 505.811798,464.662720 
	C544.807861,464.651367 583.803894,464.652222 622.799927,464.662292 
	C636.677490,464.665894 647.565063,472.758148 651.149170,486.103149 
	C651.863525,488.762726 652.902527,489.669556 655.481445,489.665405 
	C680.145630,489.625702 704.809937,489.613586 729.473938,489.692169 
	C732.809937,489.702789 733.959412,488.452850 733.495178,485.181427 
	C731.212219,469.093353 729.080566,452.983643 726.764832,436.900391 
	C724.374756,420.300903 715.560120,411.137756 698.679382,407.597168 
	C672.641296,402.135864 646.376709,398.667877 619.774048,397.127808 
	C597.111572,395.815826 574.443787,395.544098 551.851135,396.589539 
	C506.672150,398.680084 462.266754,405.881500 419.768951,421.988617 
	C409.006561,426.067657 398.163116,429.642792 386.883331,428.951782 
	C366.825867,427.722992 351.822968,417.513062 343.843353,398.882324 
	C335.665161,379.788086 342.323059,363.627747 355.550507,349.147919 
	C368.601624,334.861145 385.176025,326.099396 402.604889,318.772156 
	C428.041107,308.078522 454.830139,302.251160 481.926331,297.699707 
	C500.420135,294.593231 519.040100,292.287994 537.716492,290.871429 
	C567.108459,288.642242 596.582886,287.938599 626.053589,288.917816 
	C643.164978,289.486389 660.288757,290.332123 677.342590,291.800934 
	C694.361328,293.266693 711.349182,295.171844 728.305603,297.388428 
	C749.701965,300.185364 771.010498,303.407959 792.159180,307.672211 
	C797.022278,308.652710 801.830017,309.908173 806.893372,311.090881 
	C809.926270,302.304657 812.795349,293.671906 815.878601,285.116333 
	C829.397766,247.602219 854.326111,218.532303 884.155396,193.111786 
	C886.564392,191.058777 888.969543,188.995422 891.466064,187.052017 
	C898.086670,181.898102 905.939575,182.617996 911.549316,188.821198 
	C916.740356,194.561401 916.972168,203.866257 911.666687,209.292831 
	C907.600037,213.452423 903.083984,217.174164 898.749573,221.070328 
	C867.974915,248.733307 846.143433,281.790161 837.077942,322.667175 
	C836.303894,326.157349 836.483826,328.522217 839.114136,331.109955 
	C847.361816,339.224335 852.653564,349.139404 856.059326,360.147400 
	C883.078613,447.480133 910.137573,534.800598 937.149353,622.135681 
	C941.055603,634.765442 943.875977,647.518372 940.851746,660.852295 
	C937.881836,673.946472 929.898132,683.383789 919.341064,691.060852 
	C906.276184,700.561584 893.193420,710.011658 881.120300,720.824829 
	C863.216736,736.859863 853.310303,756.519470 852.237488,780.633057 
	C851.980042,786.419189 851.204468,792.212708 850.234436,797.929382 
	C848.895447,805.819519 842.501038,811.159485 834.483521,811.334534 
	C827.825073,811.479980 821.161316,811.385132 813.999878,811.396973 
M439.646942,341.324860 
	C430.594147,344.175446 421.584595,347.176025 412.935760,351.096222 
	C400.305206,356.821228 387.906525,362.981720 378.750061,373.914948 
	C371.846588,382.158020 373.315582,388.988098 382.845459,394.048798 
	C386.625000,396.055817 390.511871,396.012482 394.488159,395.148468 
	C403.148010,393.266754 411.144440,389.388885 419.551178,386.735535 
	C462.553070,373.163147 506.484161,365.352264 551.621948,363.398438 
	C579.651062,362.185211 607.566467,362.828033 635.453308,364.857147 
	C657.792358,366.482544 679.998596,369.661438 702.042847,373.794861 
	C734.445740,379.870667 754.718689,401.038208 759.456482,433.099487 
	C762.994934,457.044830 767.064758,480.912811 771.031677,504.793060 
	C772.460266,513.392822 767.932983,520.876831 759.438232,523.052368 
	C755.727905,524.002563 751.945374,524.355835 748.077332,524.380005 
	C668.255310,524.878906 588.426208,523.340698 508.608185,525.284668 
	C485.940735,525.836731 463.528015,528.726196 441.278046,532.621582 
	C386.715820,542.174011 335.056885,559.975159 287.312195,588.446167 
	C235.779846,619.175903 193.252716,659.232727 161.303787,710.220520 
	C160.401749,711.660156 158.744965,712.964783 159.590530,715.460876 
	C169.992920,715.893311 180.445068,715.132446 190.898041,715.121399 
	C403.062042,714.897522 615.226196,714.751526 827.390259,714.816040 
	C836.505554,714.818787 843.242920,713.362244 849.628601,705.624878 
	C862.835266,689.622681 879.935425,677.669128 896.604187,665.447266 
	C907.295410,657.608276 909.686951,651.143738 905.769470,638.282227 
	C894.145264,600.119019 882.529724,561.952576 870.702637,523.852051 
	C855.375793,474.477142 839.361145,425.313232 825.375671,375.529205 
	C823.066223,367.308197 820.667114,359.272369 813.696716,353.430603 
	C807.663208,348.374084 800.829468,345.148071 793.280762,343.411743 
	C768.678101,337.752777 743.808655,333.557983 718.768921,330.416016 
	C703.947144,328.556213 689.101807,326.829956 674.230225,325.437256 
	C659.988708,324.103607 645.688538,323.528442 631.394531,322.863434 
	C613.565491,322.033997 595.727234,322.037231 577.929260,322.638885 
	C552.184265,323.509308 526.535461,325.987457 500.972565,329.313812 
	C480.529999,331.973846 460.151947,334.848785 439.646942,341.324860 
z"/>
<path fill="#34abef" opacity="1.000000" stroke="none" 
	d="
M600.704712,636.928955 
	C591.457397,605.218445 610.590515,573.677612 642.589050,568.993164 
	C678.208618,563.778564 704.499329,592.764832 704.579041,621.224976 
	C704.661865,650.816406 678.131409,672.987427 652.500305,673.659424 
	C625.701233,674.362183 607.288452,656.178467 600.704712,636.928955 
M648.271667,600.870422 
	C636.748657,603.467529 629.109558,612.980225 630.408936,623.114319 
	C631.759277,633.645325 642.454285,642.648376 652.345764,641.580627 
	C664.255310,640.295044 672.604797,630.370605 671.656250,618.627625 
	C670.836304,608.476074 660.011047,599.861694 648.271667,600.870422 
z"/>
<path fill="#34abef" opacity="1.000000" stroke="none" 
	d="
M807.039978,573.770264 
	C828.574768,585.090698 837.660583,602.964233 836.277466,626.483337 
	C835.179749,645.151062 820.121094,664.253906 801.843384,670.516418 
	C769.964783,681.438904 736.264587,660.229004 732.589417,627.095520 
	C730.281189,606.285461 737.854187,589.746460 754.586975,577.849121 
	C770.830750,566.299500 788.563721,565.654846 807.039978,573.770264 
M767.261597,631.132629 
	C771.814941,638.635498 778.650024,641.852905 787.115479,640.481384 
	C795.393555,639.140137 800.796448,633.766052 803.002502,625.749817 
	C806.860962,611.729309 795.918762,599.583740 783.369751,600.734375 
	C767.836914,602.158569 759.997131,618.791748 767.261597,631.132629 
z"/>
</svg>