<svg version="1.1" id="Layer_1" xmlns="http://www.w3.org/2000/svg" xmlns:xlink="http://www.w3.org/1999/xlink" x="0px" y="0px"
	 width="100%" viewBox="0 0 1024 1024" enable-background="new 0 0 1024 1024" xml:space="preserve">
<path fill="#34abef" opacity="1.000000" stroke="none" 
	d="
M797.349670,621.000122 
	C797.348877,681.656494 796.831787,741.818909 797.537659,801.966980 
	C797.970520,838.851440 768.037048,869.567932 736.172546,872.569519 
	C732.026489,872.960022 727.905701,873.350830 723.756470,873.351135 
	C582.613953,873.361633 441.471466,873.369141 300.328979,873.334656 
	C263.575897,873.325684 234.043259,847.737732 229.015472,811.494141 
	C228.379044,806.906311 228.677460,802.177673 228.677078,797.514282 
	C228.661697,603.714111 228.603958,409.913940 228.718262,216.113831 
	C228.736710,184.835861 243.363556,162.548630 272.058655,149.851303 
	C280.199646,146.248947 289.017059,144.793640 297.838440,144.787247 
	C440.813873,144.683731 583.789490,144.650635 726.764893,144.766373 
	C760.251770,144.793488 788.322327,167.446960 795.720581,199.755096 
	C796.946228,205.107605 797.387024,210.550446 797.385193,216.071106 
	C797.339783,350.880737 797.349548,485.690399 797.349670,621.000122 
M708.500000,192.354904 
	C596.019958,192.356659 483.539886,192.357651 371.059814,192.360764 
	C346.730560,192.361435 322.400818,192.283508 298.072296,192.417084 
	C288.339386,192.470505 281.299347,197.095886 277.181702,206.021393 
	C275.199554,210.317886 275.948334,214.844574 275.937469,219.310928 
	C275.789307,280.128815 275.918213,340.945709 275.571533,401.765198 
	C275.042572,494.569519 275.438110,587.379089 275.432190,680.186462 
	C275.429596,720.667358 275.412537,761.148193 275.386261,801.629089 
	C275.376343,816.936401 284.931854,826.603394 300.323669,826.604126 
	C442.133240,826.610596 583.942810,826.561951 725.752380,826.627563 
	C738.415039,826.633423 749.951477,818.795288 749.927979,802.453125 
	C749.645935,606.486328 749.751953,410.519043 749.751343,214.551880 
	C749.751282,201.495193 740.704163,192.475845 727.496887,192.367493 
	C721.498291,192.318268 715.498962,192.356583 708.500000,192.354904 
z"/>
<path fill="#34abef" opacity="1.000000" stroke="none" 
	d="
M518.756470,378.683655 
	C524.975220,382.011871 528.848389,387.351837 533.294617,392.025085 
	C548.548279,408.057617 563.853088,424.048767 578.773865,440.388611 
	C595.031982,458.193054 612.169739,475.303314 625.091919,495.897491 
	C642.507751,523.653259 651.186890,553.855286 648.049622,586.599182 
	C644.984253,618.592834 632.407837,646.998108 609.201477,669.377502 
	C579.845703,697.687134 544.450378,712.252502 503.161530,709.190247 
	C474.971436,707.099487 450.123749,695.782715 428.284271,678.100525 
	C396.532990,652.393188 380.453491,618.600464 378.747772,578.069824 
	C377.233002,542.076599 390.213501,510.782288 411.353363,482.333069 
	C420.711029,469.739960 431.351807,458.294403 442.027863,446.865448 
	C462.020844,425.462402 482.070862,404.112671 502.070557,382.715851 
	C506.649170,377.817413 512.033447,376.395416 518.756470,378.683655 
M488.401520,643.049988 
	C505.498352,649.437378 522.681885,649.252075 539.596436,642.797546 
	C586.828430,624.774109 602.582764,566.257568 572.582214,527.904724 
	C555.335449,505.856415 535.248840,486.304749 516.313416,465.743683 
	C513.568420,462.763031 511.832031,463.755219 509.496368,466.273407 
	C496.813538,479.947571 483.914948,493.421844 471.248016,507.110504 
	C461.628021,517.506409 452.244415,528.118652 445.807037,540.929871 
	C439.025604,554.425659 436.152649,568.945435 438.823334,583.584717 
	C444.019470,612.067444 460.828217,631.759888 488.401520,643.049988 
z"/>
<path fill="#34abef" opacity="1.000000" stroke="none" 
	d="
M431.426331,284.415985 
	C422.128235,269.029510 424.421753,251.589935 437.474884,241.556900 
	C447.647888,233.737610 459.106689,234.593307 470.065491,239.610779 
	C480.057220,244.185501 485.501251,252.352203 485.384033,263.751160 
	C485.324341,269.555389 485.737244,275.352600 482.842377,280.771149 
	C473.459991,298.333038 449.667114,301.947937 434.682281,288.002594 
	C433.591583,286.987549 432.645752,285.816803 431.426331,284.415985 
z"/>
<path fill="#34abef" opacity="1.000000" stroke="none" 
	d="
M328.982056,278.616089 
	C321.450287,256.956085 332.777954,238.397842 354.519379,236.154907 
	C371.090637,234.445328 385.110870,246.758499 385.359741,263.373657 
	C385.414154,267.005554 385.754059,270.673798 384.719025,274.281952 
	C381.026581,287.153503 371.752808,295.165924 359.225861,296.204956 
	C346.444916,297.265045 334.917542,290.665375 328.982056,278.616089 
z"/>
</svg>